<svg width="110" height="110" viewBox="0 0 110 110" fill="none" xmlns="http://www.w3.org/2000/svg">
<path d="M55 0C40.4131 0 26.4236 5.79463 16.1091 16.1091C5.79463 26.4236 0 40.4131 0 55C0 69.5869 5.79463 83.5764 16.1091 93.8909C26.4236 104.205 40.4131 110 55 110C62.2227 110 69.3747 108.577 76.0476 105.813C82.7205 103.049 88.7837 98.9981 93.8909 93.8909C98.9981 88.7837 103.049 82.7205 105.813 76.0476C108.577 69.3747 110 62.2227 110 55C110 47.7773 108.577 40.6253 105.813 33.9524C103.049 27.2795 98.9981 21.2163 93.8909 16.1091C88.7837 11.0019 82.7205 6.95063 76.0476 4.18663C69.3747 1.42262 62.2227 0 55 0ZM55 19.1915C74.7516 19.1915 90.8085 35.2484 90.8085 55C90.8085 74.7516 74.7516 90.8085 55 90.8085C35.2484 90.8085 19.1915 74.7516 19.1915 55C19.1915 35.2484 35.2484 19.1915 55 19.1915ZM55 23.4043C50.2216 23.4043 45.6952 24.4621 41.6385 26.3537C44.341 34.049 48.9659 43.766 55 43.766C61.0437 43.766 65.5146 34.0181 68.2824 26.3169C64.2459 24.4486 59.7473 23.4043 55 23.4043ZM78.1122 33.44C71.6259 38.3884 63.8023 45.7951 65.6681 51.5378C67.536 57.2868 78.1913 58.5259 86.3713 58.7782C86.5183 57.5391 86.5957 56.279 86.5957 55C86.5957 46.6583 83.3765 39.0823 78.1122 33.44ZM31.8352 33.4969C26.602 39.1329 23.4043 46.6861 23.4043 55C23.4043 56.2989 23.4838 57.5787 23.6355 58.836C31.7879 58.6429 42.4481 57.2461 44.3117 51.5104C46.178 45.7666 38.3015 38.5087 31.8352 33.4969ZM48.2621 43.7112C47.8379 43.7231 47.4272 43.863 47.0837 44.1123C46.6319 44.4407 46.329 44.9352 46.2417 45.4869C46.1543 46.0386 46.2897 46.6024 46.618 47.0543C46.9463 47.5062 47.4407 47.8092 47.9924 47.8967C48.5441 47.9842 49.1079 47.8489 49.5599 47.5207C49.7837 47.3581 49.9734 47.1531 50.1179 46.9172C50.2625 46.6813 50.3592 46.4193 50.4025 46.1461C50.4458 45.8728 50.4348 45.5938 50.3702 45.3248C50.3057 45.0558 50.1887 44.8021 50.0261 44.5783C49.8248 44.3013 49.5589 44.0775 49.2515 43.9264C48.9441 43.7753 48.6045 43.7014 48.2621 43.7112ZM61.7379 43.7112C61.6882 43.7097 61.6384 43.7101 61.5888 43.7121C61.2718 43.7255 60.9618 43.8104 60.6822 43.9603C60.4026 44.1102 60.1604 44.3214 59.9739 44.5781C59.8112 44.8019 59.6943 45.0556 59.6297 45.3246C59.5651 45.5936 59.5541 45.8727 59.5974 46.146C59.6407 46.4192 59.7374 46.6813 59.882 46.9172C60.0266 47.153 60.2162 47.3581 60.4401 47.5207C60.892 47.849 61.4559 47.9842 62.0076 47.8968C62.5593 47.8094 63.0537 47.5064 63.382 47.0545C63.7103 46.6026 63.8457 46.0388 63.7583 45.4871C63.671 44.9354 63.3681 44.441 62.9163 44.1126C62.5729 43.8631 62.1621 43.7232 61.7379 43.7112ZM55 47.5106C53.0137 47.5106 51.1087 48.2997 49.7042 49.7042C48.2997 51.1087 47.5106 53.0137 47.5106 55C47.5106 56.9863 48.2997 58.8913 49.7042 60.2958C51.1087 61.7003 53.0137 62.4894 55 62.4894C56.9863 62.4894 58.8913 61.7003 60.2958 60.2958C61.7003 58.8913 62.4894 56.9863 62.4894 55C62.4894 53.0137 61.7003 51.1087 60.2958 49.7042C58.8913 48.2997 56.9863 47.5106 55 47.5106ZM44.1645 56.4129C43.9537 56.416 43.7444 56.4507 43.5438 56.5159C43.2807 56.6013 43.037 56.7378 42.8266 56.9174C42.6162 57.097 42.4433 57.3164 42.3177 57.5628C42.1921 57.8093 42.1162 58.0781 42.0945 58.3539C42.0728 58.6297 42.1056 58.9071 42.1911 59.1702C42.3637 59.7014 42.7403 60.1423 43.2381 60.3959C43.7358 60.6495 44.3139 60.6951 44.8451 60.5225C45.1082 60.437 45.3519 60.3006 45.5623 60.121C45.7726 59.9414 45.9456 59.7221 46.0712 59.4756C46.1968 59.2292 46.2726 58.9604 46.2944 58.6846C46.3161 58.4089 46.2833 58.1315 46.1979 57.8684C46.0589 57.4404 45.7865 57.0682 45.4206 56.8063C45.0547 56.5444 44.6145 56.4065 44.1645 56.4129ZM65.8968 56.4148C65.4368 56.3948 64.9829 56.5261 64.6046 56.7886C64.2263 57.0511 63.9444 57.4303 63.8021 57.8682C63.7167 58.1313 63.6839 58.4086 63.7056 58.6844C63.7273 58.9602 63.8032 59.2289 63.9288 59.4754C64.0544 59.7218 64.2274 59.9411 64.4377 60.1208C64.6481 60.3004 64.8918 60.4368 65.1549 60.5222C65.6861 60.6948 66.2642 60.6494 66.7619 60.3958C67.2596 60.1422 67.6362 59.7014 67.8089 59.1702C67.8944 58.9071 67.9272 58.6297 67.9055 58.3539C67.8838 58.0781 67.8079 57.8093 67.6823 57.5628C67.5567 57.3164 67.3838 57.097 67.1734 56.9174C66.963 56.7378 66.7193 56.6013 66.4562 56.5159C66.2751 56.4571 66.087 56.4231 65.8968 56.4148ZM44.3314 62.9008C39.2784 62.9251 32.5731 66.8402 27.3811 70.3733C31.8347 78.3701 39.659 84.2202 48.9465 86.016C51.2846 78.2013 53.2576 67.6161 48.374 64.0682C47.238 63.2427 45.8611 62.8933 44.3314 62.9008ZM65.633 62.9055C64.093 62.9055 62.7094 63.2603 61.5733 64.0855C56.683 67.6385 58.7969 78.1529 61.0846 86.0102C70.3731 84.2045 78.195 78.3429 82.64 70.3356C77.4896 66.7726 70.719 62.9055 65.633 62.9053V62.9055ZM55 64.2634C54.4414 64.2634 53.9056 64.4853 53.5106 64.8803C53.1155 65.2754 52.8936 65.8111 52.8936 66.3698C52.8936 66.9284 53.1155 67.4642 53.5106 67.8592C53.9056 68.2542 54.4414 68.4762 55 68.4762C55.5586 68.4762 56.0944 68.2542 56.4894 67.8592C56.8845 67.4642 57.1064 66.9284 57.1064 66.3698C57.1064 65.8111 56.8845 65.2754 56.4894 64.8803C56.0944 64.4853 55.5586 64.2634 55 64.2634Z" fill="black"/>
</svg>
