<svg width="385" height="558" viewBox="0 0 385 558" fill="none" xmlns="http://www.w3.org/2000/svg">
<path d="M279 0C205.005 0 134.04 29.3946 81.7172 81.7172C29.3946 134.04 0 205.005 0 279C0 352.995 29.3946 423.96 81.7172 476.283C134.04 528.605 205.005 558 279 558C315.639 558 351.919 550.783 385.769 536.762C419.618 522.741 450.375 502.19 476.283 476.283C502.19 450.375 522.741 419.618 536.762 385.769C550.783 351.919 558 315.639 558 279C558 242.361 550.783 206.081 536.762 172.231C522.741 138.381 502.19 107.625 476.283 81.7172C450.375 55.8097 419.618 35.2587 385.769 21.2376C351.919 7.21655 315.639 0 279 0ZM279 97.3532C379.194 97.3532 460.647 178.806 460.647 279C460.647 379.194 379.194 460.647 279 460.647C178.806 460.647 97.3532 379.194 97.3532 279C97.3532 178.806 178.806 97.3532 279 97.3532ZM279 118.723C254.76 118.723 231.799 124.09 211.221 133.685C224.93 172.721 248.391 222.013 279 222.013C309.658 222.013 332.338 172.564 346.378 133.499C325.902 124.021 303.082 118.723 279 118.723ZM396.242 169.632C363.339 194.734 323.652 232.306 333.117 261.437C342.592 290.6 396.643 296.886 438.138 298.166C438.884 291.88 439.277 285.488 439.277 279C439.277 236.685 422.946 198.254 396.242 169.632ZM161.491 169.921C134.945 198.51 118.723 236.826 118.723 279C118.723 285.589 119.127 292.081 119.896 298.459C161.251 297.479 215.327 290.394 224.781 261.298C234.248 232.161 194.293 195.344 161.491 169.921ZM244.821 221.735C242.669 221.796 240.585 222.505 238.843 223.77C236.551 225.436 235.014 227.944 234.571 230.742C234.128 233.541 234.815 236.401 236.48 238.693C238.146 240.986 240.654 242.523 243.452 242.967C246.251 243.411 249.111 242.725 251.404 241.06C252.539 240.235 253.501 239.195 254.235 237.998C254.968 236.802 255.458 235.472 255.678 234.086C255.898 232.7 255.842 231.285 255.514 229.92C255.187 228.556 254.594 227.269 253.769 226.134C252.747 224.728 251.399 223.593 249.839 222.827C248.28 222.06 246.557 221.685 244.821 221.735ZM313.179 221.735C312.927 221.728 312.675 221.729 312.423 221.74C310.815 221.808 309.243 222.238 307.824 222.999C306.406 223.759 305.178 224.831 304.231 226.132C303.406 227.268 302.813 228.555 302.485 229.919C302.157 231.284 302.102 232.7 302.321 234.086C302.541 235.472 303.032 236.801 303.765 237.998C304.498 239.195 305.46 240.235 306.596 241.06C308.889 242.725 311.749 243.411 314.548 242.967C317.346 242.524 319.854 240.987 321.52 238.695C323.185 236.402 323.872 233.542 323.429 230.744C322.986 227.945 321.449 225.437 319.157 223.771C317.415 222.506 315.331 221.796 313.179 221.735ZM279 241.009C268.924 241.009 259.261 245.011 252.136 252.136C245.011 259.261 241.009 268.924 241.009 279C241.009 289.076 245.011 298.739 252.136 305.864C259.261 312.989 268.924 316.991 279 316.991C289.076 316.991 298.739 312.989 305.864 305.864C312.989 298.739 316.991 289.076 316.991 279C316.991 268.924 312.989 259.261 305.864 252.136C298.739 245.011 289.076 241.009 279 241.009ZM224.035 286.167C222.965 286.183 221.904 286.359 220.886 286.69C219.551 287.123 218.315 287.815 217.248 288.726C216.181 289.638 215.303 290.75 214.666 292.001C214.029 293.251 213.644 294.614 213.534 296.013C213.424 297.412 213.59 298.819 214.024 300.154C214.9 302.849 216.81 305.086 219.335 306.372C221.86 307.659 224.792 307.889 227.487 307.014C228.822 306.581 230.058 305.889 231.125 304.977C232.192 304.066 233.069 302.954 233.707 301.704C234.344 300.453 234.729 299.09 234.839 297.691C234.949 296.292 234.783 294.885 234.349 293.551C233.644 291.38 232.262 289.491 230.406 288.163C228.55 286.834 226.317 286.135 224.035 286.167ZM334.276 286.177C331.943 286.075 329.64 286.742 327.721 288.073C325.802 289.405 324.373 291.328 323.651 293.55C323.217 294.884 323.051 296.291 323.161 297.69C323.271 299.089 323.656 300.452 324.293 301.702C324.931 302.953 325.808 304.065 326.875 304.976C327.942 305.887 329.178 306.579 330.513 307.013C333.208 307.888 336.14 307.658 338.665 306.371C341.19 305.085 343.1 302.849 343.976 300.154C344.41 298.819 344.576 297.412 344.466 296.013C344.356 294.614 343.971 293.251 343.334 292.001C342.697 290.75 341.819 289.638 340.752 288.726C339.685 287.815 338.449 287.123 337.114 286.69C336.196 286.391 335.241 286.219 334.276 286.177ZM224.881 319.079C199.249 319.202 165.234 339.062 138.897 356.985C161.489 397.55 201.179 427.226 248.292 436.336C260.153 396.694 270.161 342.998 245.388 325.001C239.625 320.813 232.641 319.041 224.881 319.079ZM332.938 319.102C325.126 319.102 318.107 320.902 312.345 325.088C287.537 343.112 298.26 396.448 309.866 436.306C356.983 427.147 396.662 397.412 419.21 356.794C393.084 338.719 358.738 319.102 332.938 319.101V319.102ZM279 325.991C276.166 325.991 273.448 327.116 271.444 329.12C269.441 331.124 268.315 333.842 268.315 336.676C268.315 339.51 269.441 342.228 271.444 344.231C273.448 346.235 276.166 347.361 279 347.361C281.834 347.361 284.552 346.235 286.556 344.231C288.559 342.228 289.685 339.51 289.685 336.676C289.685 333.842 288.559 331.124 286.556 329.12C284.552 327.116 281.834 325.991 279 325.991Z" fill="black" fill-opacity="0.1"/>
</svg>
